<?xml version="1.0" encoding="UTF-8" standalone="no"?>
<svg width="32px" height="32px" viewBox="0 0 32 32" version="1.1" xmlns="http://www.w3.org/2000/svg" xmlns:xlink="http://www.w3.org/1999/xlink">
    <defs></defs>
    <g id="Page-1" stroke="none" stroke-width="1" fill="none" fill-rule="evenodd">
        <g id="most_viewed_writer_red_medium">
            <g id="Group-Copy-4" transform="translate(4.640000, 0.000000)">
                <path d="M3.37792,28.5888 L9.85728,28.5888 L6.6176,22.97728 L3.37792,28.5888" id="Fill-9" fill="#B92B27"></path>
                <path d="M19.21664,28.5888 L15.97696,22.97728 L13.95712,26.47552 L19.21664,28.5888" id="Fill-10" fill="#FE4028"></path>
                <path d="M11.29728,22.14784 C10.03776,22.14784 8.832,21.92256 7.70432,21.5296 L11.29728,27.75424 L14.89152,21.5296 C13.76384,21.92256 12.55808,22.14784 11.29728,22.14784" id="Fill-11" fill="#FE4028"></path>
                <path d="M14.89152,21.5296 L11.29728,27.75424 L11.77856,28.5888 L13.81504,26.4192 L13.95712,26.47552 L15.97696,22.97728 L15.0976,21.45408 C15.02976,21.47968 14.96064,21.50528 14.89152,21.5296" id="Fill-12" fill="#FE4028"></path>
                <path d="M11.29728,1.888 C6.1632,1.888 1.99936,6.05056 1.99936,11.18592 C1.99936,14.81856 4.08832,17.95584 7.12576,19.48544 C8.38144,20.11904 9.79584,20.48384 11.29728,20.48384 C12.8,20.48384 14.2144,20.11904 15.47008,19.48544 C18.50752,17.95584 20.5952,14.81856 20.5952,11.18592 C20.5952,6.05056 16.43264,1.888 11.29728,1.888 L11.29728,1.888 Z M11.29728,17.49888 C7.81696,17.49888 4.98432,14.66624 4.98432,11.18592 C4.98432,7.70432 7.81696,4.87296 11.29728,4.87296 C14.77888,4.87296 17.61024,7.70432 17.61024,11.18592 C17.61024,14.66624 14.77888,17.49888 11.29728,17.49888 L11.29728,17.49888 Z" id="Fill-13" fill="#B92B27"></path>
                <path d="M7.48416,21.15072 L7.57888,21.31328 L7.67232,21.15072 L7.48416,21.15072" id="Fill-14" fill="#E6E7E8"></path>
                <path d="M14.89152,21.5296 C14.96064,21.50528 15.02976,21.47968 15.0976,21.45408 L15.01696,21.31328 L14.89152,21.5296" id="Fill-15" fill="#E6E7E8"></path>
                <path d="M15.1104,21.15072 L14.92224,21.15072 L15.01696,21.31328 L15.1104,21.15072" id="Fill-16" fill="#E6E7E8"></path>
                <path d="M7.57888,21.31328 L7.49696,21.45408 C7.56608,21.47968 7.63392,21.50528 7.70432,21.5296 L7.57888,21.31328" id="Fill-17" fill="#E6E7E8"></path>
                <path d="M20.65792,27.7568 L16.61952,20.76032 C16.96896,20.56576 17.30304,20.34944 17.62688,20.11904 C20.42496,18.1312 22.2592,14.87104 22.2592,11.18592 C22.2592,5.14176 17.34144,0.224 11.29728,0.224 C5.25312,0.224 0.33536,5.14176 0.33536,11.18592 C0.33536,14.87104 2.1696,18.1312 4.96768,20.11904 C5.29152,20.34944 5.62688,20.56576 5.97632,20.76032 L0.49536,30.2528 L12.48768,30.26432 L14.25024,28.38656 L23.06688,31.92704 L20.65792,27.7568 L20.65792,27.7568 Z M1.99936,11.18592 C1.99936,6.05056 6.1632,1.888 11.29728,1.888 C16.43264,1.888 20.5952,6.05056 20.5952,11.18592 C20.5952,14.81856 18.50752,17.95584 15.47008,19.48544 C14.2144,20.11904 12.8,20.48384 11.29728,20.48384 C9.79584,20.48384 8.38144,20.11904 7.12576,19.48544 C4.08832,17.95584 1.99936,14.81856 1.99936,11.18592 L1.99936,11.18592 Z M3.37792,28.5888 L6.6176,22.97728 L9.85728,28.5888 L3.37792,28.5888 L3.37792,28.5888 Z M13.95712,26.47552 L13.81504,26.4192 L11.77856,28.5888 L7.70432,21.5296 C7.63392,21.50528 7.56608,21.47968 7.49696,21.45408 L7.57888,21.31328 L7.48416,21.15072 L7.67232,21.15072 L7.57888,21.31328 L7.70432,21.5296 C8.832,21.92256 10.03776,22.14784 11.29728,22.14784 C12.55808,22.14784 13.76384,21.92256 14.89152,21.5296 L15.01696,21.31328 L14.92224,21.15072 L15.1104,21.15072 L15.01696,21.31328 L15.0976,21.45408 L19.21664,28.5888 L13.95712,26.47552 L13.95712,26.47552 Z" id="Fill-18" fill="#FFFFFF"></path>
                <path d="M15.94624,11.18592 C15.94624,8.61824 13.86496,6.53696 11.29728,6.53696 C8.7296,6.53696 6.64832,8.61824 6.64832,11.18592 C6.64832,13.7536 8.7296,15.83488 11.29728,15.83488 C13.86496,15.83488 15.94624,13.7536 15.94624,11.18592" id="Fill-19" fill="#FE4028"></path>
                <path d="M17.61024,11.18592 C17.61024,7.70432 14.77888,4.87296 11.29728,4.87296 C7.81696,4.87296 4.98432,7.70432 4.98432,11.18592 C4.98432,14.66624 7.81696,17.49888 11.29728,17.49888 C14.77888,17.49888 17.61024,14.66624 17.61024,11.18592 L17.61024,11.18592 Z M6.64832,11.18592 C6.64832,8.61824 8.7296,6.53696 11.29728,6.53696 C13.86496,6.53696 15.94624,8.61824 15.94624,11.18592 C15.94624,13.7536 13.86496,15.83488 11.29728,15.83488 C8.7296,15.83488 6.64832,13.7536 6.64832,11.18592 L6.64832,11.18592 Z" id="Fill-20" fill="#FFFFFF"></path>
            </g>
        </g>
    </g>
</svg>